PathFileType	3	(X/Y/Z)	walking_3__view2_aligned.trc
DataRate	CameraRate	NumFrames	NumMarkers	Units	OrigDataRate	OrigDataStartFrame	OrigNumFrames
100.0	100.0	17	19	mm	100.0	1045	6318
Frame#	Time	pelvis			neck			head			hip_left			hip_right			knee_left			knee_right			ankle_left			ankle_right			heel_left			heel_right			toe_left			toe_right			shoulder_left			shoulder_right			elbow_left			elbow_right			wrist_left			wrist_right			
		X1	Y1	Z1	X2	Y2	Z2	X3	Y3	Z3	X4	Y4	Z4	X5	Y5	Z5	X6	Y6	Z6	X7	Y7	Z7	X8	Y8	Z8	X9	Y9	Z9	X10	Y10	Z10	X11	Y11	Z11	X12	Y12	Z12	X13	Y13	Z13	X14	Y14	Z14	X15	Y15	Z15	X16	Y16	Z16	X17	Y17	Z17	X18	Y18	Z18	X19	Y19	Z19	
1045	10.44000	13.742285	925.720685	194.254456	12.027549	1492.623913	259.864530	17.988200	1585.539183	410.984553	90.907328	926.467063	194.808038	-63.422516	924.974277	193.700897	123.762732	528.498376	410.430970	-111.021595	485.886947	172.723397	130.455385	101.418316	428.577870	-112.048716	197.147627	-144.296367	127.486852	44.777873	403.075002	-107.484695	180.875274	-199.745141	118.780856	79.571809	631.900706	-134.240601	51.168475	-45.122142	185.549117	1441.010072	188.454139	-173.334320	1428.864122	253.811018	263.544641	1151.713888	109.691160	-242.647432	1134.820794	318.189468	342.844372	878.458702	99.111608	-191.905444	955.855079	538.012092
1046	10.45000	17.103234	925.182810	195.116138	14.724627	1492.295703	260.000438	20.056066	1585.291876	410.985358	94.352863	926.075434	195.639985	-60.146152	924.290162	194.592312	125.854210	527.101577	408.095264	-108.946190	486.483978	176.779630	131.487934	96.766431	430.848150	-110.342180	201.083576	-147.092790	128.364223	39.217141	405.754630	-105.675871	185.999491	-203.213180	120.209605	77.404733	636.882245	-132.551078	51.487447	-51.096143	188.408788	1440.992506	189.102709	-170.365919	1428.432014	253.329566	267.564940	1152.151903	109.766622	-239.642099	1134.404567	317.993563	347.779551	878.719111	98.320932	-189.024040	955.808512	538.742319
1047	10.46000	19.867174	924.650720	195.297536	16.734217	1492.138946	260.497152	20.853353	1585.220208	411.291708	97.142010	925.751440	195.656727	-57.407446	923.549978	194.938367	127.874818	525.016495	401.571315	-107.029268	487.889392	184.609224	132.670680	94.040689	423.680785	-109.692635	203.471313	-138.584994	129.325570	36.395583	398.611146	-105.095194	188.764170	-194.723161	122.398956	75.013397	629.760701	-131.733431	52.894081	-43.748149	190.701930	1441.030987	190.979704	-167.769464	1428.436947	252.344835	270.600215	1152.451741	112.999803	-236.944483	1134.589123	314.357460	349.373248	879.417268	103.526170	-188.662819	954.450857	531.081889
1048	10.47000	22.631113	924.118630	195.478935	18.743807	1491.982188	260.993866	21.650640	1585.148540	411.598057	99.931158	925.427446	195.673468	-54.668739	922.809795	195.284422	129.895427	522.931414	395.047367	-105.112347	489.294806	192.438818	133.853427	91.314947	416.513419	-109.043089	205.859051	-130.077197	130.286916	33.574025	391.467661	-104.514517	191.528849	-186.233141	124.588307	72.622060	622.639157	-130.915785	54.300715	-36.400155	192.995071	1441.069469	192.856700	-165.173009	1428.441881	251.360103	273.635490	1152.751580	116.232985	-234.246866	1134.773678	310.721356	350.966945	880.115424	108.731407	-188.301598	953.093203	523.421460
1049	10.48000	25.395052	923.586540	195.660333	20.753397	1491.825431	261.490580	22.447926	1585.076872	411.904407	102.720306	925.103451	195.690210	-51.930033	922.069611	195.630477	131.916036	520.846333	388.523418	-103.195426	490.700220	200.268412	135.036173	88.589205	409.346054	-108.393544	208.246789	-121.569401	131.248263	30.752467	384.324177	-103.933841	194.293528	-177.743122	126.777658	70.230723	615.517612	-130.098138	55.707349	-29.052160	195.288213	1441.107950	194.733695	-162.576553	1428.446814	250.375372	276.670765	1153.051419	119.466166	-231.549250	1134.958233	307.085253	352.560642	880.813581	113.936645	-187.940376	951.735549	515.761030
1050	10.49000	28.158991	923.054449	195.841732	22.762988	1491.668674	261.987293	23.245213	1585.005203	412.210756	105.509454	924.779457	195.706951	-49.191326	921.329428	195.976532	133.936645	518.761251	381.999469	-101.278504	492.105633	208.098006	136.218920	85.863463	402.178688	-107.743999	210.634527	-113.061604	132.209610	27.930909	377.180693	-103.353164	197.058207	-169.253103	128.967009	67.839387	608.396068	-129.280492	57.113983	-21.704166	197.581354	1441.146432	196.610690	-159.980098	1428.451748	249.390640	279.706039	1153.351257	122.699347	-228.851634	1135.142788	303.449149	354.154339	881.511738	119.141883	-187.579155	950.377895	508.100600
1051	10.50000	30.922931	922.522359	196.023131	24.772578	1491.511917	262.484007	24.042500	1584.933535	412.517106	108.298601	924.455463	195.723693	-46.452620	920.589244	196.322587	135.957254	516.676170	375.475521	-99.361583	493.511047	215.927601	137.401666	83.137721	395.011322	-107.094454	213.022264	-104.553808	133.170956	25.109351	370.037208	-102.772487	199.822886	-160.763083	131.156360	65.448050	601.274523	-128.462845	58.520616	-14.356171	199.874496	1441.184913	198.487686	-157.383643	1428.456681	248.405908	282.741314	1153.651096	125.932529	-226.154017	1135.327344	299.813046	355.748036	882.209894	124.347121	-187.217933	949.020240	500.440170
1052	10.51000	33.686870	921.990269	196.204529	26.782168	1491.355160	262.980721	24.839786	1584.861867	412.823455	111.087749	924.131469	195.740434	-43.713913	919.849060	196.668642	137.977863	514.591088	368.951572	-97.444661	494.916461	223.757195	138.584413	80.411980	387.843957	-106.444908	215.410002	-96.046011	134.132303	22.287794	362.893724	-102.191811	202.587566	-152.273064	133.345711	63.056713	594.152979	-127.645198	59.927250	-7.008177	202.167637	1441.223395	200.364681	-154.787187	1428.461615	247.421177	285.776589	1153.950935	129.165710	-223.456401	1135.511899	296.176943	357.341733	882.908051	129.552359	-186.856712	947.662586	492.779740
1053	10.52000	36.450809	921.458179	196.385928	28.791758	1491.198402	263.477435	25.637073	1584.790199	413.129805	113.876897	923.807474	195.757175	-40.975207	919.108877	197.014696	139.998472	512.506007	362.427623	-95.527740	496.321875	231.586789	139.767159	77.686238	380.676591	-105.795363	217.797740	-87.538215	135.093649	19.466236	355.750239	-101.611134	205.352245	-143.783045	135.535062	60.665377	587.031434	-126.827552	61.333884	0.339817	204.460778	1441.261876	202.241676	-152.190732	1428.466548	246.436445	288.811864	1154.250773	132.398891	-220.758784	1135.696454	292.540839	358.935430	883.606207	134.757597	-186.495490	946.304932	485.119310
1054	10.53000	39.214749	920.926089	196.567326	30.801349	1491.041645	263.974149	26.434360	1584.718531	413.436154	116.666044	923.483480	195.773917	-38.236500	918.368693	197.360751	142.019080	510.420925	355.903674	-93.610818	497.727288	239.416383	140.949906	74.960496	373.509226	-105.145818	220.185478	-79.030418	136.054996	16.644678	348.606755	-101.030457	208.116924	-135.293026	137.724414	58.274040	579.909890	-126.009905	62.740518	7.687812	206.753920	1441.300358	204.118672	-149.594277	1428.471482	245.451714	291.847139	1154.550612	135.632073	-218.061168	1135.881009	288.904736	360.529127	884.304364	139.962835	-186.134269	944.947278	477.458880
1055	10.54000	41.978688	920.393999	196.748725	32.810939	1490.884888	264.470863	27.231646	1584.646863	413.742504	119.455192	923.159486	195.790658	-35.497794	917.628510	197.706806	144.039689	508.335844	349.379726	-91.693897	499.132702	247.245977	142.132652	72.234754	366.341860	-104.496273	222.573216	-70.522622	137.016343	13.823120	341.463270	-100.449781	210.881603	-126.803006	139.913765	55.882703	572.788346	-125.192258	64.147152	15.035806	209.047061	1441.338839	205.995667	-146.997821	1428.476415	244.466982	294.882414	1154.850451	138.865254	-215.363552	1136.065564	285.268632	362.122823	885.002520	145.168073	-185.773047	943.589623	469.798450
1056	10.55000	44.742627	919.861909	196.930123	34.820529	1490.728131	264.967577	28.028933	1584.575195	414.048853	122.244340	922.835491	195.807400	-32.759087	916.888326	198.052861	146.060298	506.250762	342.855777	-89.776975	500.538116	255.075571	143.315399	69.509012	359.174495	-103.846728	224.960953	-62.014826	137.977689	11.001562	334.319786	-99.869104	213.646282	-118.312987	142.103116	53.491367	565.666801	-124.374612	65.553786	22.383800	211.340203	1441.377321	207.872663	-144.401366	1428.481348	243.482251	297.917689	1155.150290	142.098435	-212.665935	1136.250120	281.632529	363.716520	885.700677	150.373311	-185.411826	942.231969	462.138020
1057	10.56000	45.004621	919.916224	196.760269	33.904440	1490.498180	265.206970	25.820015	1584.108955	414.123586	122.550819	923.106768	195.631353	-32.541578	916.725679	197.889199	146.243058	505.220606	334.048066	-89.760183	502.209746	263.538017	143.354223	69.388921	343.741358	-104.497129	225.079646	-46.075715	137.944271	11.272875	318.142164	-100.592283	213.320172	-101.766336	143.200539	50.903358	549.914605	-124.754078	67.233020	39.291508	210.761185	1441.516233	209.981760	-144.621816	1428.405257	241.622671	298.562813	1155.829607	146.125728	-211.853263	1136.344205	275.708980	362.158819	888.243430	159.776019	-188.221636	939.440955	449.860904
1058	10.57000	45.266615	919.970539	196.590415	32.988350	1490.268230	265.446363	23.611098	1583.642716	414.198318	122.857298	923.378045	195.455306	-32.324070	916.563033	197.725536	146.425818	504.190450	325.240356	-89.743392	503.881377	272.000463	143.393047	69.268829	328.308221	-105.147530	225.198340	-30.136604	137.910854	11.544187	301.964542	-101.315463	212.994062	-85.219685	144.297963	48.315348	534.162409	-125.133544	68.912254	56.199216	210.182167	1441.655146	212.090857	-144.842267	1428.329166	239.763092	299.207938	1156.508925	150.153021	-211.040590	1136.438290	269.785431	360.601117	890.786184	169.178728	-191.031446	936.649942	437.583788
1059	10.58000	45.528608	920.024854	196.420561	32.072260	1490.038280	265.685756	21.402180	1583.176477	414.273051	123.163777	923.649322	195.279259	-32.106561	916.400386	197.561873	146.608578	503.160294	316.432645	-89.726600	505.553007	280.462909	143.431870	69.148738	312.875084	-105.797931	225.317033	-14.197492	137.877436	11.815500	285.786920	-102.038643	212.667952	-68.673035	145.395386	45.727339	518.410213	-125.513010	70.591488	73.106923	209.603149	1441.794059	214.199954	-145.062717	1428.253074	237.903512	299.853063	1157.188243	154.180313	-210.227918	1136.532375	263.861882	359.043416	893.328937	178.581436	-193.841256	933.858928	425.306672
1060	10.59000	45.790602	920.079169	196.250707	31.156171	1489.808329	265.925149	19.193263	1582.710237	414.347783	123.470256	923.920599	195.103213	-31.889052	916.237739	197.398211	146.791337	502.130138	307.624935	-89.709808	507.224637	288.925356	143.470694	69.028646	297.441947	-106.448333	225.435726	1.741619	137.844018	12.086813	269.609298	-102.761822	212.341842	-52.126384	146.492810	43.139330	502.658017	-125.892476	72.270722	90.014631	209.024132	1441.932972	216.309051	-145.283168	1428.176983	236.043933	300.498188	1157.867561	158.207606	-209.415246	1136.626460	257.938333	357.485715	895.871691	187.984144	-196.651066	931.067914	413.029555
1061	10.60000	46.052596	920.133484	196.080853	30.240081	1489.578379	266.164542	16.984345	1582.243998	414.422516	123.776735	924.191876	194.927166	-31.671544	916.075092	197.234548	146.974097	501.099982	298.817224	-89.693016	508.896268	297.387802	143.509518	68.908555	282.008811	-107.098734	225.554419	17.680730	137.810600	12.358125	253.431676	-103.485002	212.015732	-35.579733	147.590233	40.551321	486.905821	-126.271942	73.949956	106.922339	208.445114	1442.071884	218.418148	-145.503618	1428.100891	234.184353	301.143312	1158.546879	162.234899	-208.602573	1136.720545	252.014784	355.928013	898.414444	197.386852	-199.460876	928.276900	400.752439
